<?xml version="1.0" standalone="no"?>
<!DOCTYPE svg PUBLIC "-//W3C//DTD SVG 20010904//EN"
 "http://www.w3.org/TR/2001/REC-SVG-20010904/DTD/svg10.dtd">
<svg version="1.0" xmlns="http://www.w3.org/2000/svg"
 width="1373.000000pt" height="547.000000pt" viewBox="0 0 1373.000000 547.000000"
 preserveAspectRatio="xMidYMid meet">
<metadata>
Created by potrace 1.12, written by Peter Selinger 2001-2015
</metadata>
<g transform="translate(0.000000,547.000000) scale(0.100000,-0.100000)"
fill="#006af3" stroke="none">
<path d="M0 2740 l0 -2730 3955 0 3955 0 0 1475 0 1475 270 0 270 0 0 -1475 0
-1475 2640 0 2640 0 0 2730 0 2730 -6865 0 -6865 0 0 -2730z m6690 -5 l0
-2145 -3050 0 -3050 0 0 2145 0 2145 3050 0 3050 0 0 -2145z m6450 0 l0 -2145
-1720 0 -1720 0 0 2145 0 2145 1720 0 1720 0 0 -2145z m-4875 1420 c109 -28
203 -113 241 -217 22 -59 22 -171 1 -233 -64 -186 -270 -282 -454 -213 -80 29
-172 121 -201 201 -73 195 36 409 237 463 63 17 106 17 176 -1z"/>
<path d="M1180 2485 l0 -1605 195 0 195 0 0 364 0 363 138 143 137 142 420
-506 420 -506 254 0 253 0 -44 53 c-145 170 -1028 1237 -1028 1242 0 2 238
251 529 552 l529 548 -141 6 c-78 4 -196 7 -262 7 l-120 1 -540 -557 -540
-557 -3 957 -2 958 -195 0 -195 0 0 -1605z"/>
<path d="M3830 2480 l0 -1600 195 0 195 0 0 126 0 126 63 -57 c127 -116 293
-207 447 -245 110 -27 300 -37 410 -21 217 32 401 126 573 290 221 213 343
469 366 775 39 497 -203 951 -624 1168 -158 81 -280 109 -469 109 -266 0 -499
-91 -697 -270 l-69 -62 0 630 0 631 -195 0 -195 0 0 -1600z m1265 285 c134
-29 298 -124 392 -229 146 -164 222 -381 210 -601 -7 -130 -25 -200 -78 -314
-142 -304 -444 -483 -744 -442 -158 22 -281 81 -398 191 -108 100 -171 203
-223 360 -25 78 -28 98 -28 240 -1 133 2 166 22 234 114 393 484 638 847 561z"/>
<path d="M11270 3139 c-400 -39 -764 -340 -914 -757 -87 -244 -90 -563 -6
-814 125 -374 411 -650 778 -750 115 -32 381 -32 506 0 161 40 325 130 454
247 l62 57 0 -126 0 -126 195 0 195 0 0 1095 0 1095 -195 0 -195 0 0 -126 0
-126 -68 63 c-167 158 -370 248 -606 269 -61 5 -113 9 -116 9 -3 -1 -43 -5
-90 -10z m284 -384 c89 -19 218 -82 298 -145 409 -327 395 -1004 -28 -1306
-131 -93 -264 -137 -414 -137 -118 0 -197 20 -315 81 -72 37 -108 64 -180 137
-119 119 -176 218 -222 386 -27 98 -24 309 5 413 67 233 218 417 427 518 136
65 284 84 429 53z"/>
</g>
</svg>
